<?xml version="1.0" encoding="utf-8"?>
<!-- Generator: Adobe Illustrator 27.0.1, SVG Export Plug-In . SVG Version: 6.00 Build 0)  -->
<svg version="1.1" id="Capa_1" xmlns="http://www.w3.org/2000/svg" xmlns:xlink="http://www.w3.org/1999/xlink" x="0px" y="0px"
	 viewBox="0 0 25 25" style="enable-background:new 0 0 25 25;" xml:space="preserve">
<style type="text/css">
	.st0{fill:#791ED4;}
</style>
<path class="st0" d="M14.2,10.8l0-9.9c0-0.5-0.4-1-1-1h-1.4c-0.5,0-1,0.4-1,1l0,9.9H1c-0.5,0-1,0.4-1,1l0,1.4c0,0.5,0.4,1,1,1h9.9
	l0,9.9c0,0.5,0.4,1,1,1h1.4c0.5,0,1-0.4,1-1l0-9.9l9.9,0c0.5,0,1-0.4,1-1v-1.4c0-0.5-0.4-1-1-1L14.2,10.8z"/>
</svg>
