<?xml version="1.0" encoding="utf-8"?>
<!-- Generator: Adobe Illustrator 27.2.0, SVG Export Plug-In . SVG Version: 6.00 Build 0)  -->
<svg version="1.1" id="Capa_1" xmlns="http://www.w3.org/2000/svg" xmlns:xlink="http://www.w3.org/1999/xlink" x="0px" y="0px"
	 viewBox="0 0 24.7 40.8" style="enable-background:new 0 0 24.7 40.8;" xml:space="preserve">
<style type="text/css">
	.st0{fill:#B2B2B2;}
</style>
<g>
	<path class="st0" d="M21.4,0.4l2.8,2.8c0.6,0.6,0.6,1.5,0,2.1L5.3,24.2c-0.6,0.6-1.5,0.6-2.1,0l-2.8-2.8c-0.6-0.6-0.6-1.5,0-2.1
		L19.3,0.4C19.9-0.1,20.8-0.1,21.4,0.4z"/>
	<path class="st0" d="M0.4,19.3l2.8-2.8c0.6-0.6,1.5-0.6,2.1,0l18.9,18.9c0.6,0.6,0.6,1.5,0,2.1l-2.8,2.8c-0.6,0.6-1.5,0.6-2.1,0
		L0.4,21.4C-0.1,20.8-0.1,19.9,0.4,19.3z"/>
</g>
</svg>
