<?xml version="1.0" encoding="utf-8"?>
<!-- Generator: Adobe Illustrator 27.0.1, SVG Export Plug-In . SVG Version: 6.00 Build 0)  -->
<svg version="1.1" id="Capa_1" xmlns="http://www.w3.org/2000/svg" xmlns:xlink="http://www.w3.org/1999/xlink" x="0px" y="0px"
	 viewBox="0 0 39.9 35.6" style="enable-background:new 0 0 39.9 35.6;" xml:space="preserve">
<style type="text/css">
	.st0{fill:#FFFFFF;}
</style>
<path class="st0" d="M39.9,10.1c-0.3,1.3-0.6,2.6-0.9,3.9c-0.7,2.8-1.3,5.6-1.9,8.4c-0.4,1.6-1.5,2.4-3.1,2.4c-7.3,0-14.7,0-22,0
	c-0.2,0-0.3,0-0.5,0c-0.7,0.1-1.2,0.6-1.2,1.3c0,0.7,0.5,1.2,1.3,1.3c0.2,0,0.3,0,0.5,0c7.6,0,15.1,0,22.7,0c0.1,0,0.2,0,0.4,0
	c0.6,0,1,0.4,1.2,0.9c0.1,0.5-0.1,1-0.6,1.3c0,0-0.1,0.1-0.2,0.1c0.5,1.1,0.5,2.2,0.1,3.3c-0.3,0.8-0.8,1.4-1.5,1.9
	c-1.4,1-3.2,0.9-4.6,0c-1.6-1.1-2-2.6-1.5-5.1c-2.4,0-4.8,0-7.3,0c0.5,1.1,0.5,2.2,0.1,3.3c-0.3,0.8-0.9,1.4-1.6,1.9
	c-1.4,0.9-3.3,0.8-4.6-0.2c-1.5-1.1-1.9-2.7-1.3-5c-0.1,0-0.3,0-0.4,0c-0.7,0-1.3,0-2-0.1c-1.8-0.3-3-2-2.9-3.7
	c0.1-1.8,1.5-3.2,3.3-3.4c0.1,0,0.1,0,0.2,0c-0.3-0.9-0.5-1.9-0.7-2.8C9.2,14.1,7.7,8.5,6.2,3C6,2.4,5.9,2.3,5.4,2.3
	c-1.4,0-2.7,0-4.1,0c-0.9,0-1.5-0.8-1.2-1.6C0.3,0.3,0.6,0,1.1,0C2.7,0,4.3,0,6,0c1.1,0,2.1,0.9,2.4,2.1c0.4,1.6,0.9,3.2,1.3,4.8
	c0.1,0.3,0.2,0.4,0.5,0.4c6.2,0,12.3,0,18.5,0.1c2.8,0,5.6,0.1,8.5,0c1.3,0,2.4,0.4,2.9,2C39.9,9.6,39.9,9.8,39.9,10.1z M16.3,14.9
	c0-0.2,0-0.3,0-0.5c-0.2-1.5-0.4-2.9-0.6-4.4c0-0.3-0.1-0.4-0.5-0.4c-1.5,0-3,0-4.4,0c-0.1,0-0.3,0-0.4,0c0.4,1.4,0.7,2.8,1.1,4.1
	c0.1,0.4,0.1,0.9,0.4,1.1c0.3,0.2,0.8,0.1,1.2,0.1C14.1,14.9,15.2,14.9,16.3,14.9z M30.7,9.7c-1.8,0-3.4,0-5.1,0c0,1.8,0,3.5,0,5.2
	c0.1,0,0.1,0,0.1,0c1.3,0,2.7,0,4,0c0.3,0,0.3-0.1,0.3-0.3c0.1-0.7,0.2-1.5,0.3-2.2C30.4,11.5,30.5,10.6,30.7,9.7z M23.1,9.6
	c-1.7,0-3.4,0-5.1,0c0.2,1.8,0.5,3.5,0.7,5.2c1.5,0,3,0,4.4,0C23.1,13.1,23.1,11.4,23.1,9.6z M32.3,14.9c1.3,0,2.6,0,3.9,0
	c0.1,0,0.2-0.1,0.2-0.2c0.4-1.7,0.8-3.3,1.2-5c0,0-0.1,0-0.1,0c-1.4,0-2.8,0-4.2,0C33.2,9.7,33,9.9,33,10c-0.1,0.7-0.2,1.5-0.3,2.2
	C32.6,13.1,32.5,13.9,32.3,14.9z M17.3,22.5c0-0.2,0-0.3,0-0.5c-0.2-1.5-0.4-3-0.6-4.4c0-0.3-0.1-0.3-0.4-0.3c-0.9,0-1.9,0-2.8,0
	c-0.3,0-0.7,0-1.1,0c0.5,1.7,0.9,3.3,1.3,4.8c0,0.2,0.3,0.3,0.5,0.4C15.3,22.5,16.3,22.5,17.3,22.5z M25.5,17.3c0,1.7,0,3.5,0,5.2
	c1.1,0,2.2,0,3.2,0c0.1,0,0.2-0.2,0.2-0.3c0.2-1.5,0.4-3,0.6-4.5c0-0.1,0-0.2,0-0.4C28.2,17.3,26.9,17.3,25.5,17.3z M19,17.3
	c0.2,1.7,0.4,3.3,0.6,4.9c0,0.2,0.1,0.3,0.3,0.3c0.9,0,1.8,0,2.7,0c0.1,0,0.3,0,0.4,0c0-1.8,0-3.5,0-5.2
	C21.8,17.3,20.4,17.3,19,17.3z M35.8,17.3c-1.3,0-2.5,0-3.8,0c-0.2,1.7-0.5,3.4-0.7,5.2c1,0,1.9,0,2.9,0c0.3,0,0.5-0.3,0.6-0.6
	c0.2-0.9,0.4-1.9,0.7-2.8C35.6,18.4,35.7,17.9,35.8,17.3z M16.9,33.3c1,0,1.8-0.8,1.8-1.8c0-1-0.8-1.8-1.8-1.7c-1,0-1.7,0.8-1.7,1.7
	C15.2,32.5,16,33.3,16.9,33.3z M31.7,33.3c1,0,1.8-0.8,1.8-1.7c0-1-0.8-1.8-1.8-1.8c-1,0-1.7,0.8-1.7,1.7
	C30,32.5,30.8,33.3,31.7,33.3z"/>
</svg>
