<?xml version="1.0" encoding="utf-8"?>
<!-- Generator: Adobe Illustrator 27.1.1, SVG Export Plug-In . SVG Version: 6.00 Build 0)  -->
<svg version="1.1" id="Capa_1" xmlns="http://www.w3.org/2000/svg" xmlns:xlink="http://www.w3.org/1999/xlink" x="0px" y="0px"
	 viewBox="0 0 40 40" style="enable-background:new 0 0 40 40;" xml:space="preserve">
<style type="text/css">
	.st0{fill:#B2B2B2;}
</style>
<path class="st0" d="M24.9,20L39.4,5.5c0.8-0.8,0.8-2.1,0-2.9l-2-2c-0.8-0.8-2.1-0.8-2.9,0L20,15.1L5.5,0.6c-0.8-0.8-2.1-0.8-2.9,0
	l-2,2c-0.8,0.8-0.8,2.1,0,2.9L15.1,20L0.6,34.5c-0.8,0.8-0.8,2.1,0,2.9l2,2c0.8,0.8,2.1,0.8,2.9,0L20,24.9l14.5,14.5
	c0.8,0.8,2.1,0.8,2.9,0l2-2c0.8-0.8,0.8-2.1,0-2.9L24.9,20z"/>
</svg>
