<?xml version="1.0" encoding="utf-8"?>
<!-- Generator: Adobe Illustrator 27.2.0, SVG Export Plug-In . SVG Version: 6.00 Build 0)  -->
<svg version="1.1" id="Capa_1" xmlns="http://www.w3.org/2000/svg" xmlns:xlink="http://www.w3.org/1999/xlink" x="0px" y="0px"
	 viewBox="0 0 24.7 40.8" style="enable-background:new 0 0 24.7 40.8;" xml:space="preserve">
<style type="text/css">
	.st0{fill:#B2B2B2;}
</style>
<g>
	<path class="st0" d="M3.2,40.4l-2.8-2.8c-0.6-0.6-0.6-1.5,0-2.1l18.9-18.9c0.6-0.6,1.5-0.6,2.1,0l2.8,2.8c0.6,0.6,0.6,1.5,0,2.1
		L5.3,40.4C4.7,40.9,3.8,40.9,3.2,40.4z"/>
	<path class="st0" d="M24.2,21.5l-2.8,2.8c-0.6,0.6-1.5,0.6-2.1,0L0.4,5.4c-0.6-0.6-0.6-1.5,0-2.1l2.8-2.8c0.6-0.6,1.5-0.6,2.1,0
		l18.9,18.9C24.7,20,24.7,20.9,24.2,21.5z"/>
</g>
</svg>
